#Unknown ASF file
:ROOT_YZX
:FOOT_3DOF
:FULLY-SPECIFIED
:DEGREES
1209
root 8.97442 17.8352 46.4106 -2.13289 -113.536 1.03727
lfemur -7.60628 14.6243 -19.5464
ltibia 33.7222
lfoot -20.0375 0 -10.9949
ltoes -46.0633
rfemur -4.78198 -12.8011 11.0759
rtibia 42.5116
rfoot -10.6928 0 -12.2965
rtoes -18.6786
lowerback 7.51336 3.9725 -3.56052
upperback -0.176169 5.03225 1.35133
thorax -4.82226 2.58973 2.80107
lowerneck -4.77049 -11.3028 -21.9375
upperneck 18.8705 -18.7741 21.3375
head 11.0994 -9.13188 8.85194
lclavicle 4.01576e-014 -5.1684e-015
lhumerus -39.4319 14.3589 61.9561
lradius 29.3615
lwrist 4.43219
lhand -16.4901 33.1964
lfingers 7.12502
lthumb 9.7273 62.9517
rclavicle 4.01576e-014 -5.1684e-015
rhumerus -27.6975 -2.30836 -82.0307
rradius 35.8573
rwrist -3.31051
rhand -24.6272 12.4763
rfingers 7.12502
rthumb 1.87158 -17.4953
1210
root 8.8912 17.85 46.4885 -2.06164 -117.997 1.2569
lfemur -7.42636 15.2112 -20.128
ltibia 33.8795
lfoot -21.3757 0 -10.1389
ltoes -49.6824
rfemur -6.00213 -13.1654 10.7876
rtibia 40.7596
rfoot -12.166 0 -11.7704
rtoes -19.228
lowerback 7.69429 3.78515 -3.61925
upperback -0.26884 4.75725 1.07412
thorax -4.97946 2.45453 2.56633
lowerneck -4.76281 -11.0476 -20.0478
upperneck 19.1071 -18.6936 20.9175
head 10.8923 -9.02685 8.39201
lclavicle 7.37677e-015 -1.19271e-015
lhumerus -39.3841 12.7738 61.8309
lradius 31.9239
lwrist 7.60863
lhand -16.9353 33.4054
lfingers 7.12502
lthumb 9.29779 63.1804
rclavicle 7.37677e-015 -1.19271e-015
rhumerus -26.9836 -2.31147 -82.2808
rradius 35.4793
rwrist -4.02132
rhand -24.5058 12.5872
rfingers 7.12502
rthumb 1.98888 -17.3833
1211
root 8.84707 17.8774 46.5932 -1.59329 -123.943 1.09021
lfemur -8.26638 16.3146 -20.4967
ltibia 35.0685
lfoot -21.2707 0 -9.76503
ltoes -50.3298
rfemur -8.64428 -12.0165 11.4779
rtibia 39.153
rfoot -12.2416 0 -11.3714
rtoes -23.6846
lowerback 7.56501 3.56265 -3.7196
upperback 0.12827 4.49091 2.00289
thorax -4.55621 2.3209 3.64613
lowerneck -6.1403 -10.7455 -21.648
upperneck 19.5477 -17.8107 20.8647
head 11.2726 -8.63722 8.76875
lclavicle 2.33324e-014 -8.74653e-015
lhumerus -39.937 14.8082 62.6175
lradius 34.4236
lwrist 9.89574
lhand -17.5809 33.3023
lfingers 7.12502
lthumb 8.67477 63.1041
rclavicle 2.33324e-014 -8.74653e-015
rhumerus -25.3669 -0.587815 -81.7867
rradius 35.0303
rwrist -2.77409
rhand -24.0293 11.7092
rfingers 7.12502
rthumb 2.44905 -18.2565
1212
root 8.81854 17.8987 46.592 -1.46133 -128.58 0.384779
lfemur -8.24958 17.5264 -19.583
ltibia 35.5415
lfoot -24.5456 0 -12.2296
ltoes -46.3394
rfemur -10.3209 -10.8917 13.2704
rtibia 37.3192
rfoot -12.4392 0 -11.2154
rtoes -25.6974
lowerback 8.3293 3.60596 -3.39718
upperback -0.116517 4.57032 2.39188
thorax -5.25792 2.36996 3.81043
lowerneck -6.37661 -10.5974 -21.0222
upperneck 19.8518 -17.574 20.2208
head 11.2232 -8.52529 8.44641
lclavicle 2.88362e-014 1.03368e-014
lhumerus -40.0055 13.9772 63.4263
lradius 36.6781
lwrist 12.0776
lhand -17.3956 33.0091
lfingers 7.12502
lthumb 8.85357 62.8034
rclavicle 2.88362e-014 1.03368e-014
rhumerus -25.754 -1.57287 -81.972
rradius 34.2493
rwrist -2.0687
rhand -24.4569 12.1792
rfingers 7.12502
rthumb 2.03612 -17.7908
1213
root 8.75959 17.8999 46.6642 -0.964085 -132.694 1.05389
lfemur -8.85801 17.1241 -21.0506
ltibia 35.6664
lfoot -24.8775 0 -12.3064
ltoes -47.5403
rfemur -12.7531 -11.0559 13.2704
rtibia 35.8458
rfoot -12.289 0 -9.14809
rtoes -28.9648
lowerback 8.58832 3.66623 -3.46535
upperback -0.388731 4.62617 2.03903
thorax -5.67079 2.40704 3.44687
lowerneck -5.76242 -10.2369 -18.9606
upperneck 19.2898 -16.9877 18.9029
head 10.391 -8.24024 7.69266
lclavicle -1.0215e-013 -5.56597e-015
lhumerus -39.4072 12.4184 64.6325
lradius 38.4017
lwrist 13.6232
lhand -17.081 32.8589
lfingers 7.12502
lthumb 9.15717 62.6401
rclavicle -1.0215e-013 -5.56597e-015
rhumerus -26.6733 -3.91729 -81.5754
rradius 33.925
rwrist -1.861
rhand -24.1718 12.6934
rfingers 7.12502
rthumb 2.31139 -17.2739
1214
root 8.752 17.9228 46.5667 -0.929811 -134.87 1.22353
lfemur -8.25069 18.1157 -20.4818
ltibia 35.5384
lfoot -25.5519 0 -16.1474
ltoes -47.9436
rfemur -13.649 -10.7738 14.5693
rtibia 34.2323
rfoot -13.6236 0 -8.62455
rtoes -28.3234
lowerback 8.85121 3.20631 -4.64392
upperback -0.434676 3.89284 2.24791
thorax -5.89932 2.09038 4.42546
lowerneck -5.55973 -10.0297 -19.138
upperneck 19.2823 -16.8131 19.0999
head 10.3444 -8.19225 7.8404
lclavicle -1.02672e-013 -7.15625e-015
lhumerus -38.4614 11.6617 65.7561
lradius 39.3024
lwrist 13.5073
lhand -17.2835 32.8036
lfingers 7.12502
lthumb 8.96182 62.5933
rclavicle -1.02672e-013 -7.15625e-015
rhumerus -27.6532 -6.11587 -81.3405
rradius 32.493
rwrist -0.403469
rhand -26.3789 12.6799
rfingers 7.12502
rthumb 0.179804 -17.2998
1215
root 8.73829 17.9514 46.4732 -0.985118 -136.728 1.40476
lfemur -7.53001 17.664 -20.1747
ltibia 35.3273
lfoot -24.1156 0 -17.2921
ltoes -48.2491
rfemur -14.2101 -10.5853 15.8537
rtibia 32.5295
rfoot -12.8305 0 -7.78909
rtoes -23.6043
lowerback 8.71886 2.65467 -5.43975
upperback -0.0040313 3.08237 2.40125
thorax -5.32863 1.68832 5.17527
lowerneck -6.15893 -9.98554 -19.3366
upperneck 19.3806 -16.6125 19.0235
head 10.4623 -8.08194 7.85432
lclavicle -4.52235e-015 1.98785e-014
lhumerus -36.9139 10.8288 67.3593
lradius 40.4438
lwrist 12.2547
lhand -15.0972 33.1274
lfingers 7.12502
lthumb 11.071 62.8154
rclavicle -4.52235e-015 1.98785e-014
rhumerus -27.8043 -8.54304 -80.7128
rradius 30.2859
rwrist 0.809791
rhand -25.8277 12.9977
rfingers 7.12502
rthumb 0.712155 -16.9809
1216
root 8.71029 17.9928 46.4392 -0.556998 -138.953 1.62332
lfemur -7.53488 16.2858 -20.7584
ltibia 34.9813
lfoot -21.4267 0 -15.6451
ltoes -48.6584
rfemur -15.5534 -10.7626 16.9099
rtibia 31.2284
rfoot -11.7314 0 -8.39055
rtoes -14.9174
lowerback 8.9388 2.54866 -5.26124
upperback -0.160197 2.93695 2.1452
thorax -5.57398 1.61928 4.81342
lowerneck -5.9385 -9.94848 -19.1744
upperneck 19.2085 -16.6367 19.0577
head 10.3493 -8.10466 7.8391
lclavicle -3.24516e-014 -2.62396e-014
lhumerus -34.7454 10.1437 69.1988
lradius 40.0288
lwrist 12.1295
lhand -15.3777 30.7216
lfingers 7.12502
lthumb 10.8004 60.4239
rclavicle -3.24516e-014 -2.62396e-014
rhumerus -29.1839 -10.9455 -79.6282
rradius 28.1474
rwrist 1.16311
rhand -27.1166 13.5685
rfingers 7.12502
rthumb -0.532672 -16.4106
1217
root 8.66621 18.0181 46.3461 -0.626179 -140.292 1.74209
lfemur -6.94804 14.8095 -20.9035
ltibia 34.861
lfoot -19.2108 0 -14.9917
ltoes -48.6156
rfemur -15.4742 -11.9229 18.1097
rtibia 30.1969
rfoot -10.0851 0 -10.8975
rtoes -7.67146
lowerback 9.13422 2.13275 -5.11377
upperback -0.0986501 2.38172 2.07216
thorax -5.53878 1.33605 4.73
lowerneck -5.95101 -9.73787 -19.1168
upperneck 19.2415 -16.3314 18.9422
head 10.2744 -7.9753 7.84012
lclavicle 6.79347e-014 -2.54444e-014
lhumerus -33.0459 8.57074 71.5793
lradius 40.2905
lwrist 12.7039
lhand -14.2802 30.4503
lfingers 7.12502
lthumb 11.8589 60.0945
rclavicle 6.79347e-014 -2.54444e-014
rhumerus -31.6635 -13.8338 -77.8976
rradius 27.2906
rwrist 3.02424
rhand -27.2368 13.7362
rfingers 7.12502
rthumb -0.6488 -16.2425
1218
root 8.64649 18.0175 46.1647 -0.752861 -140.551 1.63734
lfemur -6.16886 12.8992 -20.3164
ltibia 34.994
lfoot -17.7556 0 -14.9
ltoes -48.63
rfemur -14.0359 -12.5411 19.3165
rtibia 29.004
rfoot -12.2546 0 -12.5042
rtoes 8.44612
lowerback 8.95846 1.3725 -5.56734
upperback 0.0874615 1.34308 2.47108
thorax -5.13719 0.821273 5.56664
lowerneck -6.67082 -9.58961 -19.3451
upperneck 19.6022 -15.8522 18.4295
head 10.4051 -7.75414 7.74455
lclavicle 5.43676e-014 -2.62396e-014
lhumerus -31.7108 7.80982 73.9858
lradius 40.6462
lwrist 12.0592
lhand -16.1621 31.5401
lfingers 7.12502
lthumb 10.0438 61.2804
rclavicle 5.43676e-014 -2.62396e-014
rhumerus -33.6311 -16.021 -75.525
rradius 25.3203
rwrist 5.59225
rhand -20.383 7.4592
rfingers 7.12502
rthumb 5.97003 -22.4367
